<svg width="150" height="150" viewBox="0 0 150 150" fill="none" xmlns="http://www.w3.org/2000/svg">
<path d="M51.1672 147.5C59.4546 147.5 66.1672 140.774 66.1672 132.484C66.1672 124.193 59.4546 117.467 51.1672 117.467C42.8798 117.467 36.1672 124.193 36.1672 132.484C36.1672 140.774 42.8798 147.5 51.1672 147.5Z" fill="#FF4950" stroke="white" stroke-width="5"/>
<path d="M119.612 147.5C127.899 147.5 134.612 140.774 134.612 132.484C134.612 124.193 127.899 117.467 119.612 117.467C111.324 117.467 104.612 124.193 104.612 132.484C104.612 140.774 111.324 147.5 119.612 147.5Z" fill="#FF4950" stroke="white" stroke-width="5"/>
<path d="M147.476 24.7529L147.5 24.5792V24.4038C147.5 16.2638 141.081 12.9477 138.593 11.9724C137.518 11.5509 136.465 11.4472 135.546 11.4472H135.51H135.474H135.437H135.4H135.362H135.323H135.284H135.244H135.204H135.163H135.121H135.079H135.037H134.993H134.95H134.905H134.86H134.815H134.769H134.722H134.675H134.627H134.578H134.529H134.48H134.43H134.379H134.328H134.276H134.223H134.17H134.117H134.062H134.008H133.952H133.896H133.84H133.783H133.725H133.667H133.608H133.549H133.489H133.428H133.367H133.305H133.243H133.18H133.117H133.053H132.988H132.923H132.857H132.791H132.724H132.656H132.588H132.52H132.451H132.381H132.31H132.239H132.168H132.096H132.023H131.95H131.876H131.802H131.727H131.651H131.575H131.498H131.421H131.343H131.265H131.186H131.106H131.026H130.945H130.864H130.782H130.699H130.616H130.533H130.448H130.364H130.278H130.192H130.106H130.019H129.931H129.843H129.754H129.664H129.574H129.484H129.393H129.301H129.209H129.116H129.022H128.928H128.834H128.739H128.643H128.546H128.449H128.352H128.254H128.155H128.056H127.956H127.856H127.755H127.653H127.551H127.448H127.345H127.241H127.137H127.032H126.926H126.82H126.713H126.606H126.498H126.39H126.281H126.171H126.061H125.95H125.839H125.727H125.614H125.501H125.387H125.273H125.158H125.043H124.927H124.81H124.693H124.575H124.457H124.338H124.219H124.099H123.978H123.857H123.735H123.613H123.49H123.367H123.242H123.118H122.993H122.867H122.74H122.613H122.486H122.358H122.229H122.1H121.97H121.84H121.709H121.577H121.445H121.312H121.179H121.045H120.911H120.775H120.64H120.504H120.367H120.23H120.092H119.953H119.814H119.674H119.534H119.393H119.252H119.11H118.967H118.824H118.681H118.536H118.391H118.246H118.1H117.953H117.806H117.659H117.51H117.361H117.212H117.062H116.911H116.76H116.608H116.456H116.303H116.149H115.995H115.841H115.685H115.529H115.373H115.216H115.059H114.9H114.742H114.582H114.422H114.262H114.101H113.939H113.777H113.614H113.451H113.287H113.123H112.958H112.792H112.626H112.459H112.292H112.124H111.955H111.786H111.616H111.446H111.275H111.104H110.932H110.759H110.586H110.412H110.238H110.063H109.888H109.712H109.535H109.358H109.18H109.002H108.823H108.643H108.463H108.283H108.101H107.92H107.737H107.554H107.371H107.186H107.002H106.817H106.631H106.444H106.257H106.07H105.881H105.693H105.503H105.313H105.123H104.932H104.74H104.548H104.355H104.162H103.968H103.774H103.578H103.383H103.187H102.99H102.792H102.594H102.396H102.197H101.997H101.797H101.596H101.394H101.192H100.99H100.786H100.583H100.378H100.173H99.968H99.7619H99.5552H99.348H99.1402H98.9318H98.7229H98.5134H98.3033H98.0926H97.8813H97.6695H97.457H97.244H97.0305H96.8163H96.6016H96.3863H96.1704H95.9539H95.7369H95.5193H95.3011H95.0823H94.863H94.643H94.4225H94.2015H93.9798H93.7576H93.5347H93.3114H93.0874H92.8628H92.6377H92.412H92.1857H91.9589H91.7315H91.5034H91.2748H91.0457H90.8159H90.5856H90.3547H90.1233H89.8912H89.6586H89.4254H89.1916H88.9572H88.7223H88.4868H88.2507H88.014H87.7767H87.5389H87.3005H87.0615H86.822H86.5818H86.3411H86.0998H85.8579H85.6155H85.3725H85.1289H84.8847H84.6399H84.3946H84.1487H83.9022H83.6551H83.4075H83.1593H82.9105H82.6611H82.4111H82.1606H81.9095H81.6578H81.4055H81.1527H80.8993H80.6453H80.3907H80.1356H79.8798H79.6235H79.3666H79.1092H78.8512H78.5925H78.3333H78.0736H77.8132H77.5523H77.2908H77.0287H76.7661H76.5028H76.239H75.9746H75.7096H75.4441H75.178H74.9113H74.644H74.3761H74.1077H73.8387H73.5691H73.2989H73.0282H72.7569H72.485H72.2125H71.9395H71.6658H71.3916H71.1168H70.8415H70.5655H70.289H70.0119H69.7342H69.456H69.1772H68.8978H68.6178H68.3372H68.0561H67.7744H67.4921H67.2092H66.9258H66.6417H66.3571H66.072H65.7862H65.4999H65.213H64.9255H64.6374H64.3488H64.0595H63.7697H63.4794H63.1884H62.8969H62.6048H62.3121H62.0188H61.725H61.4306H61.1356H60.84H60.5438H60.2471H59.9498H59.6519H59.3535H59.0544H58.7548H58.4546H58.1538H57.8525H57.5506H57.2481H56.945H56.6413H56.3371H56.0323H55.7269H55.4209H55.1144H54.8073H54.4996H54.1913H53.8824H53.573H53.263H52.9524H52.6412H52.3295H52.0172H51.7043H51.3908H51.0767H50.7621H50.4469H50.1311H49.8148H49.4978H49.1803H48.8622H48.5435H48.2243H47.9045H47.5841H47.2631H46.9415H46.6194H46.2967H45.9734H45.6495H45.3251H45H44.6744H44.3483H44.0215H43.6942H43.3663H43.0378H42.7087H42.3791H42.0488H41.718C38.6967 11.4472 35.9065 9.06218 33.1036 5.74002C33.0112 5.63056 32.9173 5.522 32.8218 5.41436C30.8713 3.21645 28.0693 2.501 25.6583 2.501H9.95775C7.31336 2.45635 5.35764 3.86705 4.16931 5.69453C3.02647 7.45207 2.52872 9.64546 2.50122 11.6904C2.47369 13.7374 2.91311 15.9323 3.96917 17.7158C5.05877 19.5559 6.92174 21.0934 9.54575 21.1521L9.57369 21.1527H9.60163H17.0966C20.2737 21.1527 22.9853 23.4495 23.508 26.5834L36.041 101.729L36.0444 101.75L36.0481 101.77C37.6388 110.424 43.7412 114.488 47.0666 115.985C48.806 116.768 50.6737 116.83 52.0174 116.84C54 116.855 56.7784 116.887 60.1394 116.925C76.2802 117.109 105.855 117.447 125.218 116.832C127.807 116.91 129.851 115.72 131.187 113.979C132.481 112.29 133.089 110.138 133.164 108.101C133.239 106.062 132.79 103.873 131.656 102.078C130.48 100.217 128.554 98.7895 125.943 98.6012C125.765 98.5884 125.629 98.5857 125.497 98.5846C122.264 98.5588 57.4006 98.041 53 98.041H52.9389L52.9208 98.0419C52.8446 97.9867 52.6719 97.8248 52.4475 97.4479C51.9783 96.66 51.5688 95.4255 51.252 93.9273C50.8389 91.9737 52.4405 89.8758 55.1096 89.8758H55.2083H55.3076H55.4074H55.5078H55.6087H55.7102H55.8122H55.9147H56.0178H56.1214H56.2256H56.3303H56.4355H56.5413H56.6475H56.7543H56.8616H56.9695H57.0778H57.1866H57.296H57.4058H57.5162H57.6271H57.7384H57.8503H57.9626H58.0754H58.1887H58.3025H58.4168H58.5316H58.6468H58.7625H58.8787H58.9953H59.1124H59.23H59.348H59.4665H59.5854H59.7048H59.8247H59.9449H60.0657H60.1868H60.3084H60.4305H60.553H60.6759H60.7992H60.9229H61.0471H61.1717H61.2967H61.4222H61.548H61.6742H61.8009H61.928H62.0554H62.1833H62.3115H62.4402H62.5692H62.6986H62.8284H62.9586H63.0892H63.2201H63.3515H63.4832H63.6152H63.7476H63.8804H64.0136H64.1471H64.281H64.4152H64.5498H64.6847H64.8199H64.9555H65.0915H65.2278H65.3644H65.5013H65.6386H65.7762H65.9141H66.0524H66.191H66.3298H66.469H66.6085H66.7484H66.8885H67.0289H67.1696H67.3106H67.452H67.5936H67.7355H67.8776H68.0201H68.1629H68.3059H68.4492H68.5928H68.7366H68.8807H69.0251H69.1698H69.3147H69.4598H69.6052H69.7509H69.8968H70.043H70.1894H70.336H70.4829H70.6301H70.7774H70.925H71.0728H71.2209H71.3691H71.5176H71.6663H71.8152H71.9644H72.1137H72.2632H72.413H72.563H72.7131H72.8634H73.014H73.1647H73.3156H73.4668H73.618H73.7695H73.9212H74.073H74.225H74.3772H74.5295H74.682H74.8346H74.9875H75.1404H75.2936H75.4468H75.6003H75.7538H75.9076H76.0614H76.2154H76.3695H76.5238H76.6782H76.8327H76.9874H77.1421H77.297H77.452H77.6071H77.7624H77.9177H78.0732H78.2287H78.3843H78.5401H78.6959H78.8519H79.0079H79.164H79.3202H79.4765H79.6328H79.7893H79.9458H80.1024H80.259H80.4157H80.5725H80.7293H80.8862H81.0432H81.2002H81.3573H81.5144H81.6715H81.8287H81.9859H82.1432H82.3005H82.4578H82.6152H82.7726H82.93H83.0874H83.2449H83.4024H83.5598H83.7173H83.8748H84.0323H84.1898H84.3473H84.5049H84.6623H84.8198H84.9773H85.1348H85.2922H85.4497H85.6071H85.7645H85.9218H86.0791H86.2364H86.3937H86.5509H86.7081H86.8653H87.0224H87.1794H87.3364H87.4933H87.6502H87.8071H87.9638H88.1205H88.2772H88.4337H88.5902H88.7467H88.903H89.0593H89.2155H89.3716H89.5276H89.6835H89.8393H89.995H90.1507H90.3062H90.4616H90.617H90.7722H90.9273H91.0823H91.2371H91.3919H91.5465H91.701H91.8554H92.0096H92.1637H92.3177H92.4715H92.6252H92.7788H92.9322H93.0854H93.2385H93.3915H93.5443H93.6969H93.8494H94.0017H94.1538H94.3058H94.4576H94.6092H94.7607H94.9119H95.063H95.2139H95.3646H95.5151H95.6654H95.8155H95.9655H96.1152H96.2647H96.414H96.5631H96.712H96.8607H97.0091H97.1573H97.3053H97.4531H97.6007H97.748H97.8951H98.0419H98.1886H98.3349H98.481H98.6269H98.7726H98.9179H99.063H99.2079H99.3525H99.4968H99.6409H99.7847H99.9283H100.072H100.215H100.357H100.5H100.642H100.784H100.925H101.066H101.207H101.348H101.488H101.629H101.768H101.908H102.047H102.186H102.324H102.462H102.6H102.738H102.875H103.012H103.149H103.285H103.421H103.556H103.691H103.826H103.961H104.095H104.229H104.362H104.495H104.628H104.76H104.892H105.024H105.155H105.286H105.417H105.547H105.677H105.806H105.935H106.064H106.192H106.32H106.447H106.574H106.701H106.827H106.952H107.078H107.203H107.327H107.451H107.575H107.698H107.821H107.944H108.066H108.187H108.308H108.429H108.549H108.669H108.788H108.907H109.025H109.143H109.261H109.378H109.494H109.611H109.726H109.841H109.956H110.07H110.184H110.297H110.41H110.522H110.634H110.745H110.856H110.966H111.076H111.185H111.294H111.402H111.51H111.617H111.724H111.83H111.936H112.041H112.146H112.25H112.353H112.456H112.559H112.661H112.762H112.863H112.963H113.063H113.162H113.261H113.359H113.456H113.553H113.65H113.745H113.841H113.935H114.029H114.123H114.216H114.308H114.4H114.491H114.581H114.671H114.761H114.849H114.937H115.025H115.112H115.198H115.284H115.369H115.453H115.537H115.62H115.703H115.785H115.866H115.947H116.027H116.106H116.185H116.263H116.34H116.417H116.493H116.568H116.643H116.717H116.791H116.864H116.936H117.007H117.078H117.148H117.217H117.286H117.354H117.421H117.488H117.554H117.619H117.684H117.748H117.811H117.873H117.935H117.996H118.056H118.116H118.175H118.233H118.29H118.347H118.403H118.458H118.512H118.566H118.619H118.671H118.723H118.773H118.823H118.872H118.921H118.969H119.015H119.062H119.107H119.152H119.195H119.238H119.281H119.322H119.363H119.403H119.442H119.48H119.518C122.253 89.8758 124.741 88.8337 126.821 87.4947C128.908 86.1515 130.73 84.4177 132.187 82.7988C135.227 79.4203 137.509 73.9677 138.589 69.9399C142.4 55.7413 145.248 40.5541 147.476 24.7529Z" fill="#FF4950" stroke="white" stroke-width="5"/>
<path d="M115.893 60H56.1072C54.398 60 53 61.3302 53 62.9548V63.7811C53 65.4056 54.398 66.7359 56.1072 66.7359C77.3622 84.4564 97.29 84.4564 115.893 66.7359C117.602 66.7359 119 65.4056 119 63.7811V62.9548C119 61.3302 117.602 60 115.893 60Z" fill="white"/>
<path d="M64 51.1815C70.0751 51.1815 75 46.2502 75 40.1671C75 34.0839 70.0751 29.1526 64 29.1526C57.9249 29.1526 53 34.0839 53 40.1671C53 46.2502 57.9249 51.1815 64 51.1815Z" fill="white"/>
<path d="M108.308 51.0604C114.383 51.0604 119.308 46.129 119.308 40.0459C119.308 33.9628 114.383 29.0315 108.308 29.0315C102.233 29.0315 97.3077 33.9628 97.3077 40.0459C97.3077 46.129 102.233 51.0604 108.308 51.0604Z" fill="white"/>
</svg>
