<svg width="117" height="116" viewBox="0 0 117 116" fill="none" xmlns="http://www.w3.org/2000/svg">
<path d="M39.759 113C46.5678 113 51.3878 106.788 51.3878 100.052C51.3878 93.3162 46.5678 87.1045 39.759 87.1045C32.9502 87.1045 28.1302 93.3162 28.1302 100.052C28.1302 106.788 32.9502 113 39.759 113Z" fill="#FF4950" stroke="white" stroke-width="6"/>
<path d="M91.2465 113C98.0554 113 102.875 106.788 102.875 100.052C102.875 93.3162 98.0554 87.1045 91.2465 87.1045C84.4377 87.1045 79.6177 93.3162 79.6177 100.052C79.6177 106.788 84.4377 113 91.2465 113Z" fill="#FF4950" stroke="white" stroke-width="6"/>
<path d="M113.993 19.3202L113.993 19.3202C113.869 15.9539 112.255 13.5935 110.509 12.0783C108.827 10.6181 106.994 9.9024 106.102 9.61031C105.436 9.39206 104.819 9.3311 104.278 9.3311H104.257H104.236H104.214H104.191H104.169H104.145H104.122H104.097H104.073H104.048H104.022H103.996H103.969H103.942H103.915H103.887H103.858H103.829H103.8H103.77H103.739H103.708H103.677H103.645H103.613H103.58H103.547H103.513H103.479H103.444H103.409H103.373H103.337H103.301H103.264H103.226H103.188H103.15H103.111H103.071H103.031H102.991H102.95H102.909H102.867H102.824H102.782H102.738H102.695H102.65H102.606H102.56H102.515H102.469H102.422H102.375H102.327H102.279H102.231H102.182H102.132H102.082H102.032H101.981H101.93H101.878H101.826H101.773H101.72H101.666H101.612H101.557H101.502H101.446H101.39H101.333H101.276H101.219H101.161H101.102H101.043H100.984H100.924H100.863H100.802H100.741H100.679H100.617H100.554H100.491H100.427H100.363H100.298H100.233H100.167H100.101H100.034H99.9671H99.8996H99.8315H99.763H99.694H99.6245H99.5545H99.4841H99.4132H99.3418H99.2699H99.1976H99.1248H99.0515H98.9777H98.9035H98.8287H98.7535H98.6779H98.6017H98.5251H98.448H98.3704H98.2923H98.2138H98.1348H98.0553H97.9753H97.8949H97.814H97.7326H97.6507H97.5684H97.4855H97.4022H97.3185H97.2342H97.1495H97.0643H96.9786H96.8924H96.8058H96.7187H96.6311H96.543H96.4545H96.3654H96.276H96.186H96.0955H96.0046H95.9132H95.8213H95.729H95.6361H95.5428H95.449H95.3548H95.26H95.1648H95.0691H94.973H94.8763H94.7792H94.6816H94.5835H94.485H94.386H94.2864H94.1865H94.086H93.9851H93.8837H93.7818H93.6794H93.5766H93.4733H93.3695H93.2652H93.1605H93.0552H92.9495H92.8434H92.7367H92.6296H92.522H92.4139H92.3053H92.1963H92.0868H91.9768H91.8663H91.7554H91.644H91.5321H91.4197H91.3069H91.1935H91.0797H90.9655H90.8507H90.7355H90.6198H90.5036H90.3869H90.2698H90.1522H90.0341H89.9155H89.7965H89.677H89.557H89.4365H89.3155H89.1941H89.0722H88.9498H88.827H88.7037H88.5798H88.4556H88.3308H88.2056H88.0798H87.9537H87.827H87.6999H87.5722H87.4441H87.3156H87.1865H87.057H86.927H86.7965H86.6655H86.5341H86.4022H86.2698H86.137H86.0036H85.8698H85.7355H85.6007H85.4655H85.3298H85.1936H85.0569H84.9197H84.7821H84.644H84.5054H84.3664H84.2268H84.0868H83.9463H83.8054H83.6639H83.522H83.3796H83.2368H83.0934H82.9496H82.8053H82.6605H82.5153H82.3695H82.2233H82.0766H81.9295H81.7819H81.6337H81.4852H81.3361H81.1865H81.0365H80.886H80.7351H80.5836H80.4317H80.2793H80.1264H79.9731H79.8192H79.6649H79.5101H79.3549H79.1991H79.0429H78.8862H78.7291H78.5714H78.4133H78.2547H78.0956H77.9361H77.7761H77.6156H77.4546H77.2931H77.1312H76.9688H76.8059H76.6425H76.4787H76.3144H76.1496H75.9843H75.8186H75.6524H75.4857H75.3185H75.1508H74.9827H74.8141H74.645H74.4755H74.3055H74.1349H73.964H73.7925H73.6206H73.4481H73.2752H73.1019H72.928H72.7537H72.5789H72.4036H72.2279H72.0517H71.8749H71.6978H71.5201H71.342H71.1634H70.9843H70.8047H70.6247H70.4442H70.2632H70.0817H69.8997H69.7173H69.5344H69.351H69.1672H68.9829H68.7981H68.6128H68.427H68.2408H68.0541H67.8669H67.6792H67.4911H67.3024H67.1134H66.9238H66.7337H66.5432H66.3522H66.1607H65.9688H65.7763H65.5834H65.3901H65.1962H65.0019H64.807H64.6118H64.416H64.2197H64.023H63.8258H63.6282H63.43H63.2314H63.0323H62.8327H62.6326H62.4321H62.2311H62.0296H61.8277H61.6252H61.4223H61.2189H61.015H60.8107H60.6059H60.4006H60.1948H59.9885H59.7818H59.5746H59.3669H59.1588H58.9501H58.741H58.5315H58.3214H58.1108H57.8998H57.6883H57.4764H57.2639H57.051H56.8376H56.6237H56.4094H56.1945H55.9792H55.7635H55.5472H55.3305H55.1133H54.8956H54.6774H54.4588H54.2396H54.0201H53.8H53.5794H53.3584H53.1369H52.9149H52.6925H52.4695H52.2461H52.0223H51.7979H51.5731H51.3477H51.122H50.8957H50.6689H50.4417H50.214H49.9859H49.7572H49.5281H49.2985H49.0684H48.8379H48.6068H48.3753H48.1433H47.9109H47.6779H47.4445H47.2106H46.9763H46.7414H46.5061H46.2703H46.034H45.7973H45.5601H45.3223H45.0842H44.8455H44.6064H44.3668H44.1267H43.8861H43.6451H43.4036H43.1616H42.9191H42.6762H42.4327H42.1888H41.9445H41.6996H41.4543H41.2085H40.9622H40.7154H40.4682H40.2205H39.9723H39.7237H39.4745H39.2249H38.9748H38.7242H38.4732H38.2217H37.9697H37.7172H37.4642H37.2108H36.9569H36.7025H36.4477H36.1923H35.9365H35.6802H35.4235H35.1662H34.9085H34.6503H34.3916H34.1325H33.8729H33.6128H33.3522H33.0911H32.8296H32.5676H32.3051H32.0421H31.7787H31.5148H31.2504C31.0691 9.3311 30.8141 9.27059 30.474 9.02006C30.1198 8.75911 29.7491 8.34144 29.4394 7.80788C28.7502 6.62049 27.8685 5.54232 26.7985 4.58135L24.7939 6.81332L26.7985 4.58135C25.5012 3.41624 23.8927 3.00071 22.4891 3.00071H9.72605C7.36684 2.96602 5.57116 4.16831 4.47873 5.75336C3.44718 7.25008 3.02449 9.07075 3.00105 10.7152C2.97759 12.3614 3.3489 14.177 4.29924 15.6912C5.29901 17.2842 7.01887 18.6101 9.38795 18.6601L9.41958 18.6607H9.45122H17.435C17.9201 18.6607 18.3352 19.0089 18.4197 19.4867L28.176 74.6774L28.1805 74.7032L28.1855 74.7289C29.0824 79.3325 31.7435 82.2701 34.1553 83.9964C35.3521 84.853 36.5066 85.4281 37.4045 85.7885C37.8521 85.9681 38.2614 86.1046 38.6061 86.1973C38.7719 86.242 38.966 86.2882 39.166 86.3204C39.2594 86.3354 39.4179 86.3579 39.6074 86.365C39.6972 86.3684 39.8483 86.3706 40.0329 86.3527C40.08 86.3521 40.1438 86.3515 40.2267 86.3511C40.4953 86.35 40.8969 86.3512 41.4265 86.3546C42.4823 86.3614 44.0045 86.3765 45.8946 86.396C46.2953 86.4001 46.7124 86.4044 47.1447 86.4089C50.7862 86.4467 55.5134 86.4957 60.7217 86.5334C72.325 86.6173 86.3727 86.6454 96.1631 86.3644C98.4249 86.42 100.271 85.4252 101.49 83.917C102.662 82.4684 103.188 80.6539 103.248 78.9778C103.308 77.2997 102.913 75.4599 101.873 73.9286C100.778 72.3166 99.0063 71.1328 96.7015 70.9995L96.7012 70.9995C96.6222 70.9949 96.5476 70.9911 96.4235 70.9907C94.9943 70.986 49.2632 70.8386 42.8054 70.9776C42.7794 70.9355 42.7507 70.8865 42.7196 70.8298C42.3565 70.1666 42.0265 69.1127 41.7694 67.8749C41.7508 67.7856 41.7592 67.7312 41.7692 67.6958C41.7808 67.6551 41.8063 67.6007 41.8601 67.5403C41.972 67.415 42.1866 67.2896 42.4872 67.2896H42.5565H42.6264H42.6966H42.7674H42.8386H42.9103H42.9824H43.055H43.1281H43.2017H43.2757H43.3501H43.425H43.5004H43.5762H43.6524H43.7291H43.8062H43.8838H43.9618H44.0403H44.1191H44.1984H44.2782H44.3584H44.4389H44.52H44.6014H44.6832H44.7655H44.8482H44.9313H45.0148H45.0987H45.183H45.2677H45.3528H45.4383H45.5242H45.6105H45.6972H45.7843H45.8718H45.9596H46.0479H46.1365H46.2255H46.3149H46.4046H46.4948H46.5852H46.6761H46.7673H46.8589H46.9509H47.0432H47.1358H47.2289H47.3222H47.416H47.51H47.6045H47.6992H47.7943H47.8898H47.9855H48.0817H48.1781H48.2749H48.372H48.4694H48.5672H48.6653H48.7637H48.8624H48.9614H49.0608H49.1604H49.2604H49.3607H49.4612H49.5621H49.6633H49.7648H49.8665H49.9686H50.071H50.1736H50.2766H50.3798H50.4833H50.5871H50.6911H50.7955H50.9001H51.005H51.1101H51.2155H51.3212H51.4272H51.5334H51.6399H51.7466H51.8536H51.9608H52.0683H52.176H52.284H52.3922H52.5007H52.6094H52.7183H52.8275H52.9369H53.0466H53.1564H53.2665H53.3768H53.4874H53.5981H53.7091H53.8203H53.9317H54.0433H54.1551H54.2672H54.3794H54.4918H54.6045H54.7173H54.8303H54.9436H55.057H55.1706H55.2844H55.3983H55.5125H55.6268H55.7413H55.856H55.9709H56.0859H56.2011H56.3165H56.4321H56.5478H56.6636H56.7797H56.8958H57.0122H57.1287H57.2453H57.3621H57.479H57.5961H57.7133H57.8306H57.9481H58.0657H58.1835H58.3014H58.4194H58.5375H58.6558H58.7742H58.8927H59.0113H59.13H59.2489H59.3679H59.4869H59.6061H59.7254H59.8448H59.9642H60.0838H60.2035H60.3233H60.4431H60.5631H60.6831H60.8032H60.9234H61.0437H61.1641H61.2845H61.405H61.5256H61.6462H61.7669H61.8877H62.0086H62.1295H62.2504H62.3714H62.4925H62.6136H62.7348H62.856H62.9773H63.0986H63.22H63.3414H63.4628H63.5842H63.7057H63.8273H63.9488H64.0704H64.192H64.3136H64.4352H64.5569H64.6786H64.8003H64.922H65.0437H65.1654H65.2871H65.4088H65.5305H65.6522H65.7739H65.8956H66.0173H66.139H66.2607H66.3823H66.504H66.6256H66.7472H66.8687H66.9903H67.1118H67.2332H67.3547H67.4761H67.5975H67.7188H67.8401H67.9614H68.0826H68.2037H68.3248H68.4459H68.5669H68.6878H68.8087H68.9295H69.0502H69.1709H69.2915H69.4121H69.5326H69.653H69.7733H69.8936H70.0137H70.1338H70.2538H70.3737H70.4935H70.6133H70.7329H70.8524H70.9719H71.0912H71.2104H71.3296H71.4486H71.5675H71.6863H71.805H71.9236H72.042H72.1604H72.2786H72.3967H72.5146H72.6324H72.7501H72.8677H72.9851H73.1024H73.2196H73.3366H73.4535H73.5702H73.6868H73.8032H73.9194H74.0356H74.1515H74.2673H74.3829H74.4984H74.6137H74.7288H74.8438H74.9586H75.0732H75.1877H75.3019H75.416H75.5299H75.6436H75.7571H75.8705H75.9836H76.0966H76.2093H76.3219H76.4342H76.5464H76.6583H76.77H76.8816H76.9929H77.104H77.2149H77.3255H77.436H77.5462H77.6562H77.766H77.8755H77.9848H78.0939H78.2027H78.3113H78.4197H78.5278H78.6357H78.7433H78.8507H78.9578H79.0647H79.1713H79.2777H79.3838H79.4896H79.5952H79.7005H79.8055H79.9103H80.0148H80.119H80.223H80.3266H80.43H80.5331H80.6359H80.7385H80.8407H80.9426H81.0443H81.1456H81.2467H81.3474H81.4479H81.548H81.6479H81.7474H81.8466H81.9455H82.0441H82.1424H82.2403H82.3379H82.4352H82.5322H82.6288H82.7251H82.8211H82.9167H83.012H83.107H83.2016H83.2959H83.3898H83.4834H83.5766H83.6695H83.762H83.8542H83.946H84.0374H84.1285H84.2192H84.3095H84.3995H84.4891H84.5783H84.6671H84.7556H84.8437H84.9314H85.0187H85.1056H85.1921H85.2782H85.364H85.4493H85.5343H85.6188H85.703H85.7867H85.87H85.9529H86.0354H86.1175H86.1992H86.2804H86.3613H86.4417H86.5217H86.6012H86.6804H86.7591H86.8373H86.9151H86.9925H87.0695H87.146H87.222H87.2976H87.3728H87.4475H87.5218H87.5956H87.6689H87.7418H87.8142H87.8862H87.9577H88.0287H88.0992H88.1693H88.2389H88.308H88.3767H88.4448H88.5125H88.5797H88.6464H88.7126H88.7783H88.8436H88.9083H88.9725H89.0362H89.0994H89.1622H89.2244H89.2861H89.3472H89.4079H89.4681H89.5277H89.5868H89.6454H89.7035H89.761H89.818H89.8745H89.9304H89.9858H90.0407H90.095H90.1488H90.202H90.2547H90.3068H90.3584H90.4094H90.4599H90.5098H90.5592H90.608H90.6562H90.7039H90.751H90.7975H90.8434H90.8888H90.9336H90.9778H91.0215H91.0645H91.107H91.1488H91.1901H91.2308H91.2709H91.3104H91.3493H91.3876H91.4253H91.4624H91.4988H91.5347H91.5699H91.6046H91.6386H91.672H91.7048H91.7369H91.7685H91.7994H91.8296H91.8593H91.8883C94.7021 67.2896 97.1604 66.0536 99.0342 64.703C100.933 63.3344 102.497 61.6573 103.587 60.3352C105.032 58.5825 106.176 56.0375 106.746 54.1108C109.861 43.5684 112.152 32.2488 113.923 20.4704C113.971 20.1455 114.008 19.7519 113.993 19.3202Z" fill="#FF4950" stroke="white" stroke-width="6"/>
<path d="M88.8753 42H42.5227C41.1976 42 40.1137 43.1292 40.1137 44.5083V45.2097C40.1137 46.5888 41.1976 47.718 42.5227 47.718C59.002 62.7607 74.4522 62.7607 88.8753 47.718C90.2004 47.718 91.2843 46.5888 91.2843 45.2097V44.5083C91.2843 43.1292 90.2004 42 88.8753 42Z" fill="white"/>
<path d="M49.1438 39C53.0227 39 56.1672 35.4183 56.1672 31C56.1672 26.5817 53.0227 23 49.1438 23C45.2649 23 42.1204 26.5817 42.1204 31C42.1204 35.4183 45.2649 39 49.1438 39Z" fill="white"/>
<path d="M82.2542 39C86.1331 39 89.2776 35.4183 89.2776 31C89.2776 26.5817 86.1331 23 82.2542 23C78.3753 23 75.2308 26.5817 75.2308 31C75.2308 35.4183 78.3753 39 82.2542 39Z" fill="white"/>
</svg>
